<?xml version="1.0" encoding="UTF-8" standalone="no"?>
<svg
   xmlns:dc="http://purl.org/dc/elements/1.1/"
   xmlns:cc="http://creativecommons.org/ns#"
   xmlns:rdf="http://www.w3.org/1999/02/22-rdf-syntax-ns#"
   xmlns:svg="http://www.w3.org/2000/svg"
   xmlns="http://www.w3.org/2000/svg"
   xmlns:sodipodi="http://sodipodi.sourceforge.net/DTD/sodipodi-0.dtd"
   xmlns:inkscape="http://www.inkscape.org/namespaces/inkscape"
   inkscape:version="1.0 (4035a4f, 2020-05-01)"
   sodipodi:docname="facebook.png.svg"
   viewBox="0 0 330 614"
   height="614"
   width="330"
   id="svg885"
   version="1.1">
  <metadata
     id="metadata891">
    <rdf:RDF>
      <cc:Work
         rdf:about="">
        <dc:format>image/svg+xml</dc:format>
        <dc:type
           rdf:resource="http://purl.org/dc/dcmitype/StillImage" />
        <dc:title></dc:title>
      </cc:Work>
    </rdf:RDF>
  </metadata>
  <defs
     id="defs889" />
  <sodipodi:namedview
     inkscape:current-layer="g893"
     inkscape:window-maximized="0"
     inkscape:window-y="180"
     inkscape:window-x="520"
     inkscape:cy="272.32384"
     inkscape:cx="341.94737"
     inkscape:zoom="0.78627145"
     showgrid="false"
     id="namedview887"
     inkscape:window-height="998"
     inkscape:window-width="1827"
     inkscape:pageshadow="2"
     inkscape:pageopacity="0"
     guidetolerance="10"
     gridtolerance="10"
     objecttolerance="10"
     borderopacity="1"
     bordercolor="#666666"
     pagecolor="#ffffff" />
  <g
     id="g893"
     inkscape:label="Image"
     inkscape:groupmode="layer">
    <g
       transform="translate(-236,-14)"
       id="g903">
      <path
         style="fill:none;stroke:#000000;stroke-width:1px;stroke-linecap:butt;stroke-linejoin:miter;stroke-opacity:1"
         d="m 564.69048,22.892857 v 95.386903 c 0,0 -40.0625,-2.54365 -52.78076,-1.27182 -12.71825,1.27182 -56.59623,6.35912 -57.23214,51.50893 -0.63591,45.1498 0,80.76091 0,80.76091 l 105.56151,0.63591 -16.53373,110.0129 -89.02778,-0.63592 V 626.37401 H 335.12599 V 358.65476 h -97.29464 l 0.63591,-110.01289 h 96.65873 v -90.93552 c 0,0 3.17957,-80.760913 47.05754,-111.284723 43.87798,-30.52381 82.66865,-29.251984 82.66865,-29.251984 0,0 8.26687,-3.179564 99.8383,5.723214 z"
         id="path897" />
      <path
         style="fill:#00ff00;stroke-width:0.636914"
         d="M 335.68304,491.87847 V 358.01885 h -48.74505 -48.74505 l 0.41568,-7.73079 c 0.22863,-4.25194 0.41569,-28.71868 0.41569,-54.37054 v -46.63974 h 48.32936 48.32937 l 5.3e-4,-44.67287 c 2.9e-4,-25.03061 0.28293,-47.74852 0.6428,-51.66791 3.31438,-36.09753 13.66655,-67.856428 28.75988,-88.231073 8.8816,-11.989361 20.94517,-21.190448 40.22923,-30.683507 27.05358,-13.317803 49.73742,-17.758426 82.79163,-16.207414 18.11811,0.850162 48.02834,3.091769 67.82807,5.08334 3.44715,0.346733 6.66645,0.630424 7.15402,0.630424 0.75007,0 0.88649,7.249483 0.88649,47.108066 V 117.7449 l -1.74876,-0.33953 c -3.65218,-0.70909 -38.95454,-1.8238 -45.94469,-1.45075 -8.8302,0.47125 -16.90417,1.80696 -24.16468,3.99767 -21.85637,6.59472 -34.20258,19.75458 -37.54966,40.0243 -0.79711,4.82724 -1.2604,88.85778 -0.49414,89.6241 0.23592,0.23592 23.99951,0.61748 52.80801,0.84791 l 52.37908,0.41896 -8.11062,53.73462 c -4.46084,29.55405 -8.12166,53.9173 -8.13514,54.14058 -0.0135,0.22327 -20.05576,0.25162 -44.5384,0.063 L 453.9628,358.46281 V 492.10047 625.73813 H 394.82292 335.68304 V 491.8785 Z"
         id="path899" />
    </g>
  </g>
</svg>
